# cube_with_colors.obj

# ---- Vertices (x y z r g b) ----

v -0.5 -0.5 -0.5 0.82 0.13 0.45
v  0.5 -0.5 -0.5 0.22 0.91 0.30
v  0.5  0.5 -0.5 0.70 0.40 0.99
v -0.5  0.5 -0.5 0.15 0.65 0.80
v -0.5 -0.5  0.5 0.94 0.28 0.18
v  0.5 -0.5  0.5 0.33 0.72 0.86
v  0.5  0.5  0.5 0.61 0.19 0.77
v -0.5  0.5  0.5 0.10 0.88 0.42
v -0.5  0.5 -0.5 0.55 0.47 0.91
v -0.5 -0.5 -0.5 0.29 0.83 0.14
v -0.5 -0.5  0.5 0.76 0.21 0.68
v -0.5  0.5  0.5 0.48 0.59 0.32
v  0.5 -0.5 -0.5 0.90 0.11 0.53
v  0.5  0.5 -0.5 0.37 0.74 0.25
v  0.5  0.5  0.5 0.66 0.44 0.88
v  0.5 -0.5  0.5 0.18 0.92 0.60
v -0.5 -0.5 -0.5 0.73 0.36 0.81
v  0.5 -0.5 -0.5 0.26 0.95 0.09
v  0.5 -0.5  0.5 0.58 0.17 0.67
v -0.5 -0.5  0.5 0.41 0.69 0.23
v  0.5  0.5 -0.5 0.85 0.14 0.34
v -0.5  0.5 -0.5 0.20 0.87 0.52
v -0.5  0.5  0.5 0.63 0.31 0.93
v  0.5  0.5  0.5 0.12 0.78 0.66

# ---- Faces ----
# IMPORTANT: OBJ indices start at 1 (not 0)

f 1 4 3
f 3 2 1
f 5 6 7
f 7 8 5
f 12 9 10
f 10 11 12
f 13 14 15
f 15 16 13
f 17 18 19
f 19 20 17
f 21 22 23
f 23 24 21
